<svg width="96" height="59" viewBox="0 0 96 59" fill="none" xmlns="http://www.w3.org/2000/svg">
<path d="M33.41 16.2138L18.7586 51.4705L5.64803 17.3587H0.294678L0.719814 18.2382L16.1337 58.6885H17.4884L34.6811 16.2138H33.41Z" fill="#FDF0C9"/>
<path d="M76.1384 16.8584V28.9603H76.0644V47.5218C75.9195 47.5524 75.7746 47.5798 75.6297 47.6008C73.9048 47.8525 72.1302 47.6566 70.4202 47.9937C68.0301 48.4645 67.5003 49.859 66.2703 51.5927C65.0139 53.3632 62.718 54.8051 60.771 55.6877C58.5396 56.6995 56.2669 57.2055 53.953 57.2055C51.7319 57.1959 49.5366 56.7305 47.5042 55.8384C45.4717 54.9462 43.6457 53.6465 42.14 52.0203C40.5304 50.307 39.2318 48.1703 38.244 45.6102C37.2562 43.0501 36.7627 40.0841 36.7634 36.7123C36.6995 34.9266 36.8702 33.1402 37.2711 31.3986H68.6921C68.6921 28.7563 68.1986 26.4086 67.2115 24.3555C66.2759 22.3727 64.9175 20.6169 63.2309 19.2103C61.5373 17.8182 59.6017 16.7472 57.5201 16.0505C55.3918 15.3197 53.1563 14.9464 50.9051 14.9457C47.8572 14.9457 45.1192 15.5359 42.691 16.7162C40.3335 17.8433 38.2412 19.4529 36.5509 21.4401C34.8841 23.4061 33.6151 25.7117 32.7436 28.3568C31.8558 31.0802 31.4127 33.9279 31.4312 36.7913C31.4862 40.5015 32.1074 43.7487 33.2946 46.5328C34.4819 49.3169 36.033 51.6365 37.9479 53.4917C39.8065 55.3094 42.0282 56.7176 44.4688 57.6247C46.8517 58.5155 49.3761 58.9725 51.9214 58.9739C54.878 58.97 57.8029 58.3673 60.5183 57.2023C64.133 55.6751 66.522 51.9824 70.4011 51.3041C72.2603 50.9818 74.2084 50.9733 75.9311 50.1929L76.0644 50.1265V58.8433H80.891V47.4702C82.1379 46.2442 83.297 44.9003 84.8431 44.0998C85.4383 43.7923 86.0759 43.574 86.7351 43.452L87.6393 43.3467L80.891 16.8584H76.1384ZM39.5575 24.9853C40.4383 23.3838 41.5511 21.9202 42.8602 20.6417C44.1377 19.3908 45.629 18.3768 47.2639 17.6473C48.901 16.9177 50.7077 16.5522 52.6839 16.5508C55.1684 16.5508 57.6244 17.1975 60.0519 18.4909C62.4793 19.7843 64.4273 21.921 65.8959 24.9011C66.5742 26.3644 66.828 27.6016 66.6574 28.6127C66.4868 29.6239 65.3859 30.1298 63.3546 30.1305H37.5249C37.9746 28.3346 38.6579 26.6049 39.5575 24.9853Z" fill="#FDF0C9"/>
<path d="M90.8225 0V19.7464H90.7939V58.7738H95.7052V0H90.8225Z" fill="#FDF0C9"/>
<path d="M84.18 10.185C80.0375 10.185 78.6574 8.80941 78.6563 4.68381C78.6563 8.80941 77.2815 10.185 73.1338 10.185C77.2762 10.185 78.6574 11.5595 78.6563 15.6851C78.6574 11.5595 80.0375 10.185 84.18 10.185Z" fill="#FDF0C9"/>
</svg>
